<?xml version='1.0' encoding='utf-8'?>
<svg xmlns="http://www.w3.org/2000/svg" width="76.104576mm" height="131.83798mm" viewBox="0 0 269.66187 467.14246" id="svg2" version="1.1"> <defs id="defs4"> </defs> <metadata id="metadata7"> </metadata> <g id="layer1" transform="translate(-381.95521,197.4385)"> <ellipse style="fill:#ccaaff;fill-opacity:1;stroke:none;stroke-width:10;stroke-linecap:round;stroke-linejoin:round;stroke-miterlimit:4;stroke-dasharray:none;stroke-dashoffset:0;stroke-opacity:1" id="path6299" cx="519.23334" cy="41.539726" rx="16.875" ry="10.960155"/> <path id="path6328" d="m 509.7333,-66.608874 0,101.682939 0,0.847439 0.10199,0 a 9.375,6.088975 0 0 0 9.27301,5.240889 9.375,6.088975 0 0 0 9.27301,-5.240889 l 0.10199,0 0,-0.847439 0,-101.682939 -0.36024,0 a 9.375,6.088975 0 0 1 -9.01476,4.437933 9.375,6.088975 0 0 1 -9.02235,-4.437933 l -0.35265,0 z" style="fill:#aaaaaa;fill-opacity:1;stroke:none;stroke-width:10;stroke-linecap:round;stroke-linejoin:round;stroke-miterlimit:4;stroke-dasharray:none;stroke-dashoffset:0;stroke-opacity:1"/> <circle style="fill:#d5f6ff;fill-opacity:1;stroke:none;stroke-width:18.27953529;stroke-linecap:round;stroke-linejoin:round;stroke-miterlimit:4;stroke-dasharray:none;stroke-dashoffset:0;stroke-opacity:1" id="path6252" cx="519.78613" cy="-65.607559" r="96.13913"/> <g id="g4219" transform="translate(310.42999,-334.34269)"> <ellipse style="fill:#000000;fill-opacity:1;stroke:none;stroke-width:2;stroke-linecap:round;stroke-linejoin:round;stroke-miterlimit:4;stroke-dasharray:none;stroke-dashoffset:0;stroke-opacity:1" id="ellipse4221" cx="172.5" cy="266.50507" rx="7.5" ry="7.1428571"/> <ellipse ry="7.1428571" rx="7.5" cy="266.50507" cx="244.5" id="ellipse4223" style="fill:#000000;fill-opacity:1;stroke:none;stroke-width:2;stroke-linecap:round;stroke-linejoin:round;stroke-miterlimit:4;stroke-dasharray:none;stroke-dashoffset:0;stroke-opacity:1"/> <path style="fill:none;fill-rule:evenodd;stroke:#000000;stroke-width:3;stroke-linecap:round;stroke-linejoin:round;stroke-miterlimit:4;stroke-dasharray:none;stroke-opacity:1" d="m 225.57524,278.70576 c -1.42065,14.7127 -32.43016,15.2873 -34.28572,0" id="path4225"/> <ellipse style="fill:#ffaaaa;fill-opacity:1;stroke:none;stroke-width:3;stroke-linecap:round;stroke-linejoin:round;stroke-miterlimit:4;stroke-dasharray:none;stroke-dashoffset:0;stroke-opacity:1" id="ellipse4227" cx="158.15701" cy="284.28464" rx="5.8895893" ry="3.016619"/> <ellipse ry="3.016619" rx="5.8895893" cy="284.28464" cx="252.15701" id="ellipse4229" style="fill:#ffaaaa;fill-opacity:1;stroke:none;stroke-width:3;stroke-linecap:round;stroke-linejoin:round;stroke-miterlimit:4;stroke-dasharray:none;stroke-dashoffset:0;stroke-opacity:1"/> </g> <circle r="91.397865" cy="-65.607559" cx="519.78613" id="circle6256" style="fill:none;fill-opacity:1;stroke:#aaaaaa;stroke-width:10;stroke-linecap:round;stroke-linejoin:round;stroke-miterlimit:4;stroke-dasharray:none;stroke-dashoffset:0;stroke-opacity:1"/> <circle style="fill:none;fill-opacity:1;stroke:#c7c7c7;stroke-width:10;stroke-linecap:round;stroke-linejoin:round;stroke-miterlimit:4;stroke-dasharray:none;stroke-dashoffset:0;stroke-opacity:1" id="circle6258" cx="513.78613" cy="-65.607559" r="91.397865"/> <path style="fill:#ffffff;fill-opacity:1;fill-rule:evenodd;stroke:none;stroke-width:1px;stroke-linecap:butt;stroke-linejoin:miter;stroke-opacity:1" d="m 521.2333,-129.96025 c 0,0 34.79655,11.53905 42,19 7.20345,7.46095 20,38 20,38 1.29174,-33.14922 0.49668,-29.36448 -13.5,-46 -13.99668,-16.63552 -48.5,-11 -48.5,-11 z" id="path6279"/> <path style="fill:#0A3871;fill-opacity:1;stroke:none;stroke-width:10;stroke-linecap:round;stroke-linejoin:round;stroke-miterlimit:4;stroke-dasharray:none;stroke-dashoffset:0;stroke-opacity:1" d="m 502.2333,40.28261 0,183.02929 0,1.52539 0.18359,0 a 16.875,10.960155 0 0 0 16.69141,9.4336 16.875,10.960155 0 0 0 16.69141,-9.4336 l 0.18359,0 0,-1.52539 0,-183.02929 -0.64844,0 a 16.875,10.960155 0 0 1 -16.22656,7.98828 16.875,10.960155 0 0 1 -16.24023,-7.98828 l -0.63477,0 z" id="rect6297"/> <path id="path6398" d="m 506.78915,2.7881879 c 0,0 -15.67944,-5.47086 -23.82485,-11.8902 -8.1454,-6.4193299 -21.84307,-23.2621999 -21.84307,-23.2621999 3.63675,15.29724 -0.6682,13.57926 15.44767,28.1712499 16.11586,14.5920001 30.22025,6.98115 30.22025,6.98115 z" style="fill:#ffffff;fill-opacity:1;fill-rule:evenodd;stroke:none;stroke-width:1px;stroke-linecap:butt;stroke-linejoin:miter;stroke-opacity:1"/> </g> </svg>